<?xml version="1.0" standalone="no"?>
<!DOCTYPE svg PUBLIC "-//W3C//DTD SVG 20010904//EN"
 "http://www.w3.org/TR/2001/REC-SVG-20010904/DTD/svg10.dtd">
<svg version="1.0" xmlns="http://www.w3.org/2000/svg"
 width="128.000000pt" height="128.000000pt" viewBox="0 0 128.000000 128.000000"
 preserveAspectRatio="xMidYMid meet">

<g transform="translate(0.000000,128.000000) scale(0.100000,-0.100000)"
fill="#000000" stroke="none">
<path d="M37 1252 c-34 -38 -38 -70 -31 -303 6 -185 10 -232 22 -242 11 -9 77
-12 244 -13 125 0 242 1 258 4 61 9 68 48 63 375 -3 142 -5 159 -23 177 -19
19 -33 20 -268 20 -224 0 -250 -2 -265 -18z m504 -12 c18 -10 19 -24 19 -260
l0 -249 -37 -10 c-43 -12 -243 -14 -381 -5 l-90 7 -10 41 c-6 23 -8 131 -5
251 3 179 6 212 20 223 21 15 454 17 484 2z"/>
<path d="M286 1098 c-3 -13 -6 -42 -6 -65 l0 -43 -60 0 c-33 0 -60 -4 -60 -10
0 -6 27 -10 60 -10 l60 0 0 -52 c0 -99 27 -100 37 -3 l6 55 53 0 c30 0 54 5
54 10 0 6 -25 10 -55 10 l-55 0 0 34 c0 45 -11 96 -20 96 -4 0 -10 -10 -14
-22z"/>
<path d="M734 1258 c-41 -19 -46 -50 -45 -292 1 -146 5 -234 12 -242 26 -32
81 -37 307 -31 144 4 229 11 238 18 29 24 35 87 28 310 -6 170 -10 224 -21
235 -12 11 -60 14 -256 13 -145 0 -251 -5 -263 -11z m495 -23 c16 -19 24 -427
10 -473 l-12 -42 -66 0 c-36 0 -123 -3 -193 -6 -158 -8 -213 -1 -234 31 -16
25 -17 41 -15 311 1 167 2 171 24 182 29 15 474 12 486 -3z"/>
<path d="M845 980 c-8 -12 231 -12 260 0 13 5 -31 9 -117 9 -81 1 -139 -3
-143 -9z"/>
<path d="M153 583 c-157 -5 -149 12 -145 -298 3 -194 6 -243 18 -255 12 -12
56 -16 242 -18 271 -4 286 -2 309 41 16 28 18 58 15 262 -2 174 -6 233 -16
243 -30 31 -90 34 -423 25z m395 -25 c9 -8 12 -73 12 -264 0 -139 -4 -255 -8
-258 -5 -3 -109 -6 -233 -7 -158 -2 -231 1 -246 9 -34 19 -46 81 -39 202 3 58
6 151 6 208 0 97 1 103 23 112 31 13 469 11 485 -2z"/>
<path d="M189 393 c5 -10 28 -36 50 -58 l41 -39 -52 -53 c-30 -31 -46 -53 -37
-53 8 0 35 20 59 45 l44 44 47 -44 c46 -43 69 -55 69 -36 0 5 -21 30 -46 56
l-46 48 48 48 c26 27 45 52 41 56 -4 4 -30 -15 -57 -42 l-49 -48 -47 46 c-48
48 -84 64 -65 30z"/>
<path d="M775 581 c-18 -5 66 -10 203 -12 233 -4 234 -4 253 -28 19 -24 20
-35 13 -255 -4 -127 -11 -236 -16 -243 -5 -6 -22 -14 -36 -16 -21 -3 -19 -4
10 -6 63 -2 64 3 72 246 3 120 3 233 0 250 -12 58 -19 60 -254 66 -118 3 -228
2 -245 -2z"/>
<path d="M707 556 c-10 -11 -15 -60 -20 -205 -6 -194 2 -294 26 -318 18 -18
236 -30 263 -15 15 9 -9 11 -106 12 -84 0 -130 4 -138 12 -17 17 -17 499 0
516 8 8 9 12 1 12 -6 0 -18 -6 -26 -14z"/>
<path d="M860 360 c18 -12 217 -12 245 0 12 5 -33 9 -120 9 -94 1 -135 -3
-125 -9z"/>
<path d="M911 230 c37 -5 100 -5 140 0 65 6 57 7 -66 7 -117 0 -129 -1 -74 -7z"/>
</g>
</svg>
